<?xml version="1.0" encoding="UTF-8" standalone="no"?>
<svg
   xmlns:dc="http://purl.org/dc/elements/1.1/"
   xmlns:cc="http://creativecommons.org/ns#"
   xmlns:rdf="http://www.w3.org/1999/02/22-rdf-syntax-ns#"
   xmlns:svg="http://www.w3.org/2000/svg"
   xmlns="http://www.w3.org/2000/svg"
   xmlns:sodipodi="http://sodipodi.sourceforge.net/DTD/sodipodi-0.dtd"
   xmlns:inkscape="http://www.inkscape.org/namespaces/inkscape"
   width="409.99237"
   height="551.82874"
   version="1.1"
   id="svg3763"
   sodipodi:docname="iconsvg.svg"
   inkscape:version="0.92.4 (5da689c313, 2019-01-14)">
  <defs
     id="defs3767" />
  <sodipodi:namedview
     pagecolor="#ffffff"
     bordercolor="#666666"
     borderopacity="1"
     objecttolerance="10"
     gridtolerance="10"
     guidetolerance="10"
     inkscape:pageopacity="0"
     inkscape:pageshadow="2"
     inkscape:window-width="3840"
     inkscape:window-height="2089"
     id="namedview3765"
     showgrid="false"
     inkscape:zoom="0.88187112"
     inkscape:cx="-391.82984"
     inkscape:cy="385.67966"
     inkscape:window-x="-8"
     inkscape:window-y="-8"
     inkscape:window-maximized="1"
     inkscape:current-layer="svg3763" />
  <metadata
     id="metadata7">
    <rdf:RDF>
      <cc:Work
         rdf:about="">
        <dc:format>image/svg+xml</dc:format>
        <dc:type
           rdf:resource="http://purl.org/dc/dcmitype/StillImage" />
        <dc:title></dc:title>
      </cc:Work>
    </rdf:RDF>
  </metadata>
  <g
     id="g3845"
     transform="matrix(4.3859694,0,0,4.3859694,-75.706218,-87.385926)">
    <g
       id="g3823"
       transform="matrix(0.10073078,0,0,0.10073078,12.425923,2.256365)"
       style="stroke-width:9.92745972">
      <path
         id="path3807"
         d="m 0,0 c 0,0 -0.325,1.994 -0.515,1.976 l -36.182,-3.491 c -2.879,-0.278 -5.115,-2.574 -5.317,-5.459 l -0.994,-14.247 -27.992,-1.997 -1.904,12.912 c -0.424,2.872 -2.932,5.037 -5.835,5.037 h -38.188 c -2.902,0 -5.41,-2.165 -5.834,-5.037 l -1.905,-12.912 -27.992,1.997 -0.994,14.247 c -0.202,2.886 -2.438,5.182 -5.317,5.46 l -36.2,3.49 c -0.187,0.018 -0.324,-1.978 -0.511,-1.978 l -0.049,-7.83 30.658,-4.944 1.004,-14.374 c 0.203,-2.91 2.551,-5.263 5.463,-5.472 l 38.551,-2.75 c 0.146,-0.01 0.29,-0.016 0.434,-0.016 2.897,0 5.401,2.166 5.825,5.038 l 1.959,13.286 h 28.005 l 1.959,-13.286 c 0.423,-2.871 2.93,-5.037 5.831,-5.037 0.142,0 0.284,0.005 0.423,0.015 l 38.556,2.75 c 2.911,0.209 5.26,2.562 5.463,5.472 l 1.003,14.374 30.645,4.966 z"
         inkscape:connector-curvature="0"
         style="fill:#ffffff"
         transform="matrix(4.162611,0,0,-4.162611,919.24059,771.67186)" />
      <path
         id="path3809"
         transform="matrix(4.162611,0,0,-4.162611,104.69892,525.90697)"
         d="m 0,0 v -47.514 -6.035 -5.492 c 0.108,-0.001 0.216,-0.005 0.323,-0.015 l 36.196,-3.49 c 1.896,-0.183 3.382,-1.709 3.514,-3.609 l 1.116,-15.978 31.574,-2.253 2.175,14.747 c 0.282,1.912 1.922,3.329 3.856,3.329 h 38.188 c 1.933,0 3.573,-1.417 3.855,-3.329 l 2.175,-14.747 31.575,2.253 1.115,15.978 c 0.133,1.9 1.618,3.425 3.514,3.609 l 36.182,3.49 c 0.107,0.01 0.214,0.014 0.322,0.015 v 4.711 l 0.015,0.005 V 0 c 5.09692,6.4164715 9.92323,13.494208 13.621,19.449 -5.651,9.62 -12.575,18.217 -19.976,26.182 -6.864,-3.455 -13.531,-7.369 -19.828,-11.534 -3.151,3.132 -6.7,5.694 -10.186,8.372 -3.425,2.751 -7.285,4.768 -10.946,7.118 1.09,8.117 1.629,16.108 1.846,24.448 -9.446,4.754 -19.519,7.906 -29.708,10.17 -4.068,-6.837 -7.788,-14.241 -11.028,-21.479 -3.842,0.642 -7.702,0.88 -11.567,0.926 v 0.006 c -0.027,0 -0.052,-0.006 -0.075,-0.006 -0.024,0 -0.049,0.006 -0.073,0.006 V 63.652 C 93.903,63.606 90.046,63.368 86.203,62.726 82.965,69.964 79.247,77.368 75.173,84.205 64.989,81.941 54.915,78.789 45.47,74.035 45.686,65.695 46.225,57.704 47.318,49.587 43.65,47.237 39.795,45.22 36.369,42.469 32.888,39.791 29.333,37.229 26.181,34.097 19.884,38.262 13.219,42.176 6.353,45.631 -1.048,37.666 -7.968,29.069 -13.621,19.449 -9.1783421,12.475308 -4.4130298,5.4661124 0,0 Z"
         inkscape:connector-curvature="0"
         style="fill:#478cbf" />
      <path
         id="path3811"
         d="m 0,0 -1.121,-16.063 c -0.135,-1.936 -1.675,-3.477 -3.611,-3.616 l -38.555,-2.751 c -0.094,-0.007 -0.188,-0.01 -0.281,-0.01 -1.916,0 -3.569,1.406 -3.852,3.33 l -2.211,14.994 H -81.09 l -2.211,-14.994 c -0.297,-2.018 -2.101,-3.469 -4.133,-3.32 l -38.555,2.751 c -1.936,0.139 -3.476,1.68 -3.611,3.616 L -130.721,0 -163.268,3.138 c 0.015,-3.498 0.06,-7.33 0.06,-8.093 0,-34.374 43.605,-50.896 97.781,-51.086 h 0.066 0.067 c 54.176,0.19 97.766,16.712 97.766,51.086 0,0.777 0.047,4.593 0.063,8.093 z"
         inkscape:connector-curvature="0"
         style="fill:#478cbf"
         transform="matrix(4.162611,0,0,-4.162611,784.07144,817.24284)" />
      <path
         id="path3813"
         transform="matrix(4.162611,0,0,-4.162611,389.21484,625.67104)"
         d="m 0,0 c 0,-12.052 -9.765,-21.815 -21.813,-21.815 -12.042,0 -21.81,9.763 -21.81,21.815 0,12.044 9.768,21.802 21.81,21.802 C -9.765,21.802 0,12.044 0,0"
         inkscape:connector-curvature="0"
         style="fill:#ffffff" />
      <path
         id="path3815"
         transform="matrix(4.162611,0,0,-4.162611,367.36686,631.05679)"
         d="m 0,0 c 0,-7.994 -6.479,-14.473 -14.479,-14.473 -7.996,0 -14.479,6.479 -14.479,14.473 0,7.994 6.483,14.479 14.479,14.479 C -6.479,14.479 0,7.994 0,0"
         inkscape:connector-curvature="0"
         style="fill:#414042" />
      <path
         id="path3817"
         transform="matrix(4.162611,0,0,-4.162611,511.99336,724.73954)"
         d="m 0,0 c -3.878,0 -7.021,2.858 -7.021,6.381 v 20.081 c 0,3.52 3.143,6.381 7.021,6.381 3.878,0 7.028,-2.861 7.028,-6.381 V 6.381 C 7.028,2.858 3.878,0 0,0"
         inkscape:connector-curvature="0"
         style="fill:#ffffff" />
      <path
         id="path3819"
         transform="matrix(4.162611,0,0,-4.162611,634.78706,625.67104)"
         d="m 0,0 c 0,-12.052 9.765,-21.815 21.815,-21.815 12.041,0 21.808,9.763 21.808,21.815 0,12.044 -9.767,21.802 -21.808,21.802 C 9.765,21.802 0,12.044 0,0"
         inkscape:connector-curvature="0"
         style="fill:#ffffff" />
      <path
         id="path3821"
         transform="matrix(4.162611,0,0,-4.162611,656.64056,631.05679)"
         d="m 0,0 c 0,-7.994 6.477,-14.473 14.471,-14.473 8.002,0 14.479,6.479 14.479,14.473 0,7.994 -6.477,14.479 -14.479,14.479 C 6.477,14.479 0,7.994 0,0"
         inkscape:connector-curvature="0"
         style="fill:#414042" />
    </g>
  </g>
  <g
     id="layer1"
     transform="matrix(0.7294074,0,0,0.7294074,-45.912295,80.565241)">
    <g
       id="g3699"
       transform="matrix(1.532388,0,0,1.3939671,-54.912136,-41.792396)">
      <path
         id="path3650"
         d="m 114.65715,353.09353 h 47.80701 l 2.91261,3.20613 v 9.83953 l -2.31001,3.09557 h -5.22261 v 48.86596 l 44.99482,-48.86596 h -7.43218 l -2.61131,-3.09557 v -10.39231 l 2.41044,-2.43224 h 48.40962 l 2.41043,2.65335 v 9.72897 L 136.55196,489.29907 h -12.45393 l -3.60484,-2.291 V 368.79254 h -6.03691 l -2.20956,-2.43224 v -10.39231 z"
         style="fill:none;stroke:#000000;stroke-width:8.34521198;stroke-linecap:butt;stroke-linejoin:miter;stroke-miterlimit:4;stroke-dasharray:none;stroke-opacity:1"
         inkscape:connector-curvature="0" />
      <path
         id="path3640"
         d="m 162.97227,358.09475 2.6987,-1.5635 -2.76971,-3.04884 h -48.22135 l -2.45013,2.69704 v 10.20187 l 2.71645,2.9902 1.29608,-2.9902 -1.70443,-1.87621 v -7.19212 l 1.27832,-1.2508 h 46.01979 z"
         style="fill:#478cbf;fill-opacity:1;stroke:#000000;stroke-width:0.41726059px;stroke-linecap:butt;stroke-linejoin:miter;stroke-opacity:1"
         inkscape:connector-curvature="0" />
      <path
         d="m 197.06456,355.74729 -1.70266,1.87425 v 6.88137 l 1.49138,1.64168 h 7.87946 v 6.6488 l -52.12379,58.1565 v -64.72321 h 8.66244 l 1.77723,-1.95634 v -6.96346 l -1.64052,-1.39542 h -45.58657 l -1.49138,1.64168 v 7.11394 l 1.51624,1.66904 h 7.92918 v 119.18594 l 1.49138,1.64168 h 9.01043 L 243.50867,363.0938 v -5.47226 l -1.70266,-1.87425 z"
         id="path3632"
         style="fill:none;stroke:#000000;stroke-width:0.41726059px;stroke-linecap:butt;stroke-linejoin:miter;stroke-opacity:1"
         inkscape:connector-curvature="0" />
      <path
         id="path3646"
         d="m 123.69629,366.13919 v 119.40096 l 1.40609,1.7689 -1.10266,2.31328 -3.1156,-3.41884 V 369.23476 Z"
         style="fill:#478cbf;fill-opacity:1;stroke:#000000;stroke-width:0.41726059px;stroke-linecap:butt;stroke-linejoin:miter;stroke-opacity:1"
         inkscape:connector-curvature="0" />
      <path
         id="path3644"
         d="m 115.90579,366.13919 -0.80348,2.87446 h 5.82523 l 3.21391,-2.87446 z"
         style="fill:#478cbf;fill-opacity:1;stroke:#000000;stroke-width:0.41726059px;stroke-linecap:butt;stroke-linejoin:miter;stroke-opacity:1"
         inkscape:connector-curvature="0" />
      <path
         id="path3638"
         d="m 195.92471,369.36762 1.27833,-2.89248 -1.84647,-1.87621 v -6.41037 l 2.13055,-2.34526 h 44.45738 l 1.70443,2.50161 2.41462,-1.87621 -2.48563,-2.73613 h -47.79524 l -2.37911,2.61887 v 10.28004 l 2.46788,2.56024 m -38.62501,49.36179 -4.64282,12.40054 52.41142,-57.84966 v -6.87942 z"
         style="fill:#478cbf;fill-opacity:1;stroke:#000000;stroke-width:0.41726059px;stroke-linecap:butt;stroke-linejoin:miter;stroke-opacity:1"
         inkscape:connector-curvature="0" />
      <path
         id="path3642"
         d="m 162.86589,357.7369 2.31001,-1.65835 v 10.06064 l -2.66153,2.92974 h -5.1724 v 49.58456 l -4.72044,12.27178 v -64.78608 h 8.6374 l 1.60696,-1.43724 z"
         style="fill:#478cbf;fill-opacity:1;stroke:#000000;stroke-width:0.41726059px;stroke-linecap:butt;stroke-linejoin:miter;stroke-opacity:1"
         inkscape:connector-curvature="0" />
      <path
         d="m 197.06456,355.74729 -1.70266,1.87425 v 6.88137 l 1.49138,1.64168 h 7.87946 v 6.6488 l -52.12379,58.1565 v -64.72321 h 8.66244 l 1.77723,-1.95634 v -6.96346 l -1.64052,-1.39542 h -45.58657 l -1.49138,1.64168 v 7.11394 l 1.51624,1.66904 h 7.92918 v 119.18594 l 1.49138,1.64168 h 9.01043 L 243.50867,363.0938 v -5.47226 l -1.70266,-1.87425 z"
         id="path3622"
         style="fill:#478cbf;fill-opacity:1;stroke:#000000;stroke-width:0.41726059px;stroke-linecap:butt;stroke-linejoin:miter;stroke-opacity:1"
         inkscape:connector-curvature="0" />
      <path
         id="path3636"
         d="m 243.64893,357.78205 2.426,-1.54181 v 9.67203 L 136.04072,489.68148 h -11.68216 l 1.11611,-2.44127 h 8.9483 L 243.5069,363.25432 Z"
         style="fill:#478cbf;fill-opacity:1;stroke:#000000;stroke-width:0.41726059px;stroke-linecap:butt;stroke-linejoin:miter;stroke-opacity:1"
         inkscape:connector-curvature="0" />
      <path
         id="path3652"
         d="m 204.79746,366.30501 -2.46065,2.8192 h -6.42784 l 1.50652,-2.8192 c 0.0502,0 7.38197,0 7.38197,0 z"
         style="fill:#478cbf;fill-opacity:1;stroke:#000000;stroke-width:0.41726059px;stroke-linecap:butt;stroke-linejoin:miter;stroke-opacity:1"
         inkscape:connector-curvature="0" />
      <g
         transform="matrix(0.90138601,0,0,0.99222542,-92.530288,-192.23791)"
         id="g3673">
        <path
           style="fill:#cccccc;fill-opacity:1;stroke:#000000;stroke-width:8;stroke-linecap:butt;stroke-linejoin:miter;stroke-miterlimit:10;stroke-dasharray:none;stroke-opacity:1"
           id="path3671"
           d="m 399.78125,560 a 1.2330102,1.2330102 0 0 0 -0.5625,0.28125 l -5.3125,4.5625 A 1.2330102,1.2330102 0 0 0 393.5625,565.375 L 388.25,580.25 a 1.2330102,1.2330102 0 0 0 0.28125,1.28125 l 4.0625,4.0625 a 1.2330102,1.2330102 0 0 0 0.875,0.34375 H 409.875 a 1.2330102,1.2330102 0 0 0 0.875,-0.34375 l 4.28125,-4.3125 a 1.2330102,1.2330102 0 0 0 0.3125,-0.53125 l 4.5625,-15.65625 a 1.2330102,1.2330102 0 0 0 -0.3125,-1.21875 l -3.53125,-3.53125 A 1.2330102,1.2330102 0 0 0 415.1875,560 h -15.15625 a 1.2330102,1.2330102 0 0 0 -0.25,0 z m -30.0625,41.9375 a 1.2330102,1.2330102 0 0 0 -0.9375,0.90625 l -2.03125,8.0625 a 1.2330102,1.2330102 0 0 0 1.1875,1.53125 h 9.65625 l -23.9375,68.34375 a 1.2330102,1.2330102 0 0 0 1.15625,1.625 h 34.84375 a 1.2330102,1.2330102 0 0 0 1.1875,-0.84375 l 2.28125,-7.34375 a 1.2330102,1.2330102 0 0 0 -1.1875,-1.59375 h -7.875 L 407.75,603.5625 a 1.2330102,1.2330102 0 0 0 -1.15625,-1.625 h -36.625 a 1.2330102,1.2330102 0 0 0 -0.25,0 z m 110.875,0.25 a 1.2330102,1.2330102 0 0 0 -0.6875,0.40625 l -7.25,8.1875 H 461.125 l -7.6875,-7.96875 a 1.2330102,1.2330102 0 0 0 -0.875,-0.375 H 425.03125 A 1.2330102,1.2330102 0 0 0 423.875,603.25 l -2.53125,7.5625 a 1.2330102,1.2330102 0 0 0 1.15625,1.625 h 7.375 l -22.9375,67.59375 a 1.2330102,1.2330102 0 0 0 1.15625,1.625 h 29.3125 a 1.2330102,1.2330102 0 0 0 1.15625,-0.8125 l 2.25,-6.59375 a 1.2330102,1.2330102 0 0 0 -1.15625,-1.625 h -5.125 l 14.625,-46.03125 H 475.625 l -16.6875,53.46875 a 1.2330102,1.2330102 0 0 0 1.1875,1.59375 h 28.28125 a 1.2330102,1.2330102 0 0 0 1.125,-0.75 l 2.53125,-6.0625 a 1.2330102,1.2330102 0 0 0 -1.125,-1.6875 h -5.125 l 14.875,-46.8125 h 25.1875 l -16.9375,53.71875 a 1.2330102,1.2330102 0 0 0 1.1875,1.59375 h 31.0625 a 1.2330102,1.2330102 0 0 0 1.15625,-0.78125 l 2.53125,-6.59375 a 1.2330102,1.2330102 0 0 0 -1.15625,-1.65625 h -6.15625 l 18.71875,-60.78125 a 1.2330102,1.2330102 0 0 0 -0.1875,-1.125 l -5.8125,-7.8125 a 1.2330102,1.2330102 0 0 0 -1,-0.46875 H 527.0625 a 1.2330102,1.2330102 0 0 0 -0.90625,0.375 l -7,7.6875 h -12.25 l -7.25,-7.9375 a 1.2330102,1.2330102 0 0 0 -0.90625,-0.375 h -17.90625 a 1.2330102,1.2330102 0 0 0 -0.25,0 z"
           inkscape:connector-curvature="0" />
        <path
           d="m 400.03125,561.21875 -5.3125,4.5625 -5.3125,14.875 4.0625,4.0625 H 409.875 l 4.28125,-4.3125 4.5625,-15.65625 -3.53125,-3.53125 z m -30.0625,41.9375 -2.03125,8.0625 h 11.375 l -24.5,69.96875 h 34.84375 l 2.28125,-7.34375 h -9.59375 l 24.25,-70.6875 z m 110.875,0.25 L 473.25,612 h -12.625 l -8.0625,-8.34375 h -27.53125 l -2.53125,7.5625 h 9.09375 l -23.5,69.21875 h 29.3125 l 2.25,-6.59375 h -6.8125 L 448.25,625.375 h 29.0625 l -17.1875,55.0625 h 28.28125 l 2.53125,-6.0625 h -6.8125 l 15.65625,-49.25 h 27.78125 l -17.4375,55.3125 h 31.0625 l 2.53125,-6.59375 H 535.875 l 19.21875,-62.375 -5.8125,-7.8125 H 527.0625 l -7.34375,8.0625 h -13.375 l -7.59375,-8.3125 z"
           id="path3665"
           style="fill:#478cbf;fill-opacity:1;stroke:#000000;stroke-width:1;stroke-linecap:butt;stroke-linejoin:miter;stroke-miterlimit:10;stroke-dasharray:none;stroke-opacity:1"
           inkscape:connector-curvature="0" />
      </g>
    </g>
  </g>
</svg>
